<svg width="24" height="24" viewBox="0 0 24 24" fill="none" xmlns="http://www.w3.org/2000/svg">
<path d="M11.998 1.99805C13.202 1.99805 14.356 2.21105 15.425 2.60005L14.23 3.79405C12.4215 3.30229 10.5012 3.42187 8.76772 4.13419C7.03421 4.84652 5.58465 6.11167 4.64444 7.73292C3.70423 9.35417 3.32605 11.2407 3.56873 13.099C3.8114 14.9574 4.66132 16.6835 5.98632 18.009C7.31133 19.3344 9.03716 20.1849 10.8955 20.4282C12.7537 20.6715 14.6404 20.294 16.2619 19.3543C17.8835 18.4146 19.1491 16.9655 19.862 15.2322C20.5749 13.499 20.6952 11.5787 20.204 9.77005L21.398 8.57605C21.7974 9.67339 22.0011 10.8323 22 12C22 17.524 17.522 22.002 11.998 22.002C6.474 22.002 1.996 17.524 1.996 12C1.996 6.47605 6.474 1.99805 11.998 1.99805ZM11.998 6.00005C12.5047 5.99981 13.0093 6.06365 13.5 6.19005V7.75705C12.5377 7.41661 11.4883 7.41343 10.524 7.74801C9.55974 8.08259 8.73782 8.73506 8.19321 9.59833C7.6486 10.4616 7.41365 11.4844 7.52692 12.4988C7.64019 13.5131 8.09495 14.4589 8.81656 15.1808C9.53818 15.9027 10.4838 16.3578 11.4981 16.4714C12.5125 16.585 13.5353 16.3505 14.3988 15.8062C15.2622 15.2619 15.915 14.4402 16.25 13.476C16.5849 12.5118 16.5821 11.4624 16.242 10.5H17.809C18.1218 11.7117 18.048 12.9908 17.5979 14.1583C17.1478 15.3259 16.3439 16.3236 15.2987 17.0116C14.2535 17.6997 13.0193 18.0437 11.7689 17.9956C10.5184 17.9475 9.31435 17.5096 8.3251 16.7433C7.33586 15.977 6.61097 14.9205 6.25188 13.7218C5.89279 12.5231 5.91747 11.2421 6.32247 10.0581C6.72748 8.87413 7.49253 7.84639 8.51056 7.11874C9.52859 6.39109 10.7487 5.99995 12 6.00005H11.998ZM13.998 12C13.9979 12.4299 13.8592 12.8483 13.6027 13.1932C13.3461 13.5381 12.9852 13.7911 12.5735 13.9148C12.1619 14.0385 11.7213 14.0263 11.3171 13.8799C10.9129 13.7336 10.5666 13.4609 10.3296 13.1023C10.0925 12.7437 9.97734 12.3183 10.001 11.8891C10.0248 11.4599 10.1861 11.0497 10.4612 10.7194C10.7363 10.3891 11.1105 10.1563 11.5284 10.0553C11.9462 9.95439 12.3855 9.99076 12.781 10.159L14.501 8.43905L14.5 5.25005C14.5002 5.0512 14.5793 4.86056 14.72 4.72005L17.22 2.22005C17.3249 2.11529 17.4585 2.04397 17.6039 2.01508C17.7493 1.9862 17.9 2.00105 18.0369 2.05776C18.1739 2.11447 18.291 2.2105 18.3734 2.33371C18.4558 2.45693 18.4999 2.60181 18.5 2.75005V5.50005H21.25C21.3982 5.50018 21.5431 5.54423 21.6663 5.62665C21.7895 5.70907 21.8856 5.82616 21.9423 5.96312C21.999 6.10009 22.0139 6.25078 21.985 6.39618C21.9561 6.54158 21.8848 6.67516 21.78 6.78005L19.28 9.28005C19.1395 9.42074 18.9488 9.49987 18.75 9.50005H15.56L13.84 11.22C13.942 11.46 13.998 11.723 13.998 12ZM18.439 8.00005L19.439 7.00005H17.749C17.5501 7.00005 17.3593 6.92103 17.2187 6.78038C17.078 6.63972 16.999 6.44896 16.999 6.25005V4.56005L16 5.56005V7.94105C16.0209 7.95985 16.0406 7.97988 16.059 8.00105H18.439V8.00005Z" fill="#6CB3A5"/>
</svg>
