<svg width="24" height="24" viewBox="0 0 24 24" fill="none" xmlns="http://www.w3.org/2000/svg">
<path d="M18.5 20C18.5 20.1326 18.4473 20.2598 18.3536 20.3536C18.2598 20.4473 18.1326 20.5 18 20.5H12.268C11.9817 21.0486 11.6187 21.5537 11.19 22H18C18.5304 22 19.0391 21.7893 19.4142 21.4142C19.7893 21.0391 20 20.5304 20 20V9.828C19.9999 9.29761 19.7891 8.78899 19.414 8.414L13.585 2.586C13.5695 2.57163 13.5532 2.55827 13.536 2.546C13.5236 2.53645 13.5116 2.52644 13.5 2.516C13.4312 2.45107 13.358 2.39093 13.281 2.336C13.2554 2.31948 13.2287 2.30478 13.201 2.292L13.153 2.268L13.103 2.239C13.049 2.208 12.994 2.176 12.937 2.152C12.7379 2.07246 12.5271 2.02585 12.313 2.014C12.2932 2.01271 12.2735 2.01038 12.254 2.007C12.2269 2.00281 12.1995 2.00047 12.172 2H6C5.46957 2 4.96086 2.21071 4.58579 2.58579C4.21071 2.96086 4 3.46957 4 4V11.498C4.48111 11.2972 4.98479 11.1555 5.5 11.076V4C5.5 3.86739 5.55268 3.74021 5.64645 3.64645C5.74021 3.55268 5.86739 3.5 6 3.5H12V8C12 8.53043 12.2107 9.03914 12.5858 9.41421C12.9609 9.78929 13.4696 10 14 10H18.5V20ZM13.5 4.621L17.378 8.5H14C13.8674 8.5 13.7402 8.44732 13.6464 8.35355C13.5527 8.25979 13.5 8.13261 13.5 8V4.621ZM12 17.5C12 18.2223 11.8577 18.9375 11.5813 19.6048C11.3049 20.272 10.8998 20.8784 10.3891 21.3891C9.87837 21.8998 9.27205 22.3049 8.60476 22.5813C7.93747 22.8577 7.22227 23 6.5 23C5.77773 23 5.06253 22.8577 4.39524 22.5813C3.72795 22.3049 3.12163 21.8998 2.61091 21.3891C2.10019 20.8784 1.69506 20.272 1.41866 19.6048C1.14226 18.9375 1 18.2223 1 17.5C1 16.0413 1.57946 14.6424 2.61091 13.6109C3.64236 12.5795 5.04131 12 6.5 12C7.95869 12 9.35764 12.5795 10.3891 13.6109C11.4205 14.6424 12 16.0413 12 17.5ZM6.5 14C6.36739 14 6.24021 14.0527 6.14645 14.1464C6.05268 14.2402 6 14.3674 6 14.5V18.5C6 18.6326 6.05268 18.7598 6.14645 18.8536C6.24021 18.9473 6.36739 19 6.5 19C6.63261 19 6.75979 18.9473 6.85355 18.8536C6.94732 18.7598 7 18.6326 7 18.5V14.5C7 14.3674 6.94732 14.2402 6.85355 14.1464C6.75979 14.0527 6.63261 14 6.5 14ZM6.5 21.125C6.66576 21.125 6.82473 21.0592 6.94194 20.9419C7.05915 20.8247 7.125 20.6658 7.125 20.5C7.125 20.3342 7.05915 20.1753 6.94194 20.0581C6.82473 19.9408 6.66576 19.875 6.5 19.875C6.33424 19.875 6.17527 19.9408 6.05806 20.0581C5.94085 20.1753 5.875 20.3342 5.875 20.5C5.875 20.6658 5.94085 20.8247 6.05806 20.9419C6.17527 21.0592 6.33424 21.125 6.5 21.125Z" fill="#EB5757"/>
</svg>
