<svg width="24" height="24" viewBox="0 0 24 24" fill="none" xmlns="http://www.w3.org/2000/svg">
<path d="M7.20001 2.40002C6.56349 2.40002 5.95304 2.65288 5.50296 3.10297C5.05287 3.55306 4.80001 4.1635 4.80001 4.80002V11.0484C5.19227 10.9374 5.594 10.8631 6.00001 10.8264V4.80002C6.00001 4.48176 6.12644 4.17654 6.35148 3.9515C6.57653 3.72645 6.88175 3.60002 7.20001 3.60002H12V7.80002C12 8.27741 12.1897 8.73525 12.5272 9.07282C12.8648 9.41038 13.3226 9.60002 13.8 9.60002H18V19.2C18 19.5183 17.8736 19.8235 17.6485 20.0486C17.4235 20.2736 17.1183 20.4 16.8 20.4H12.48C12.2616 20.8275 11.9972 21.2298 11.6916 21.6H16.8C17.4365 21.6 18.047 21.3472 18.4971 20.8971C18.9472 20.447 19.2 19.8365 19.2 19.2V8.89682C19.1996 8.4196 19.0097 7.96207 18.672 7.62482L13.9752 2.92682C13.6378 2.5896 13.1803 2.40013 12.7032 2.40002H7.20001ZM17.7516 8.40002H13.8C13.6409 8.40002 13.4883 8.33681 13.3757 8.22429C13.2632 8.11177 13.2 7.95915 13.2 7.80002V3.84842L17.7516 8.40002ZM12 17.4C12 15.9679 11.4311 14.5943 10.4184 13.5816C9.40569 12.569 8.03218 12 6.60001 12C5.16784 12 3.79433 12.569 2.78164 13.5816C1.76894 14.5943 1.20001 15.9679 1.20001 17.4C1.20001 18.8322 1.76894 20.2057 2.78164 21.2184C3.79433 22.2311 5.16784 22.8 6.60001 22.8C8.03218 22.8 9.40569 22.2311 10.4184 21.2184C11.4311 20.2057 12 18.8322 12 17.4ZM6.60001 19.656C6.79892 19.656 6.98969 19.735 7.13034 19.8757C7.27099 20.0163 7.35001 20.2071 7.35001 20.406C7.35001 20.6049 7.27099 20.7957 7.13034 20.9364C6.98969 21.077 6.79892 21.156 6.60001 21.156C6.4011 21.156 6.21033 21.077 6.06968 20.9364C5.92903 20.7957 5.85001 20.6049 5.85001 20.406C5.85001 20.2071 5.92903 20.0163 6.06968 19.8757C6.21033 19.735 6.4011 19.656 6.60001 19.656ZM6.60001 13.8036C7.83721 13.8036 8.82361 14.8188 8.82361 16.1436C8.82361 16.8468 8.56681 17.2332 7.95121 17.7264L7.61881 17.9832C7.32361 18.216 7.22401 18.3432 7.20361 18.5208L7.19041 18.708C7.1637 18.8556 7.08272 18.9877 6.96341 19.0786C6.8441 19.1694 6.69512 19.2122 6.5458 19.1987C6.39648 19.1851 6.25764 19.1162 6.15662 19.0054C6.05561 18.8946 5.99974 18.75 6.00001 18.6C6.00001 17.916 6.25201 17.5392 6.85921 17.0544L7.19281 16.7964C7.53841 16.5204 7.62481 16.386 7.62481 16.1436C7.62481 15.474 7.16641 15.0036 6.60001 15.0036C6.00721 15.0036 5.56921 15.4428 5.57641 16.1376C5.5772 16.2164 5.56246 16.2946 5.53304 16.3677C5.50361 16.4408 5.46008 16.5074 5.40492 16.5636C5.34976 16.6199 5.28406 16.6648 5.21157 16.6957C5.13907 16.7265 5.06121 16.7428 4.98241 16.7436C4.90362 16.7444 4.82544 16.7297 4.75235 16.7002C4.67925 16.6708 4.61266 16.6273 4.55639 16.5721C4.50012 16.517 4.45526 16.4513 4.42438 16.3788C4.3935 16.3063 4.3772 16.2284 4.37641 16.1496C4.36321 14.7852 5.34241 13.8036 6.60001 13.8036Z" fill="#F38B00"/>
</svg>
