<svg width="24" height="24" viewBox="0 0 24 24" fill="none" xmlns="http://www.w3.org/2000/svg">
<path d="M19.3266 14.2959C19.3266 14.2959 19.3265 14.2959 19.3265 14.2959C18.9891 13.8906 18.5138 13.6412 17.9887 13.5931C17.4634 13.545 16.951 13.7048 16.5458 14.0422C16.1405 14.3797 15.8909 14.8549 15.8429 15.3799C15.795 15.9052 15.9545 16.4177 16.2919 16.823C16.6294 17.2283 17.1046 17.4779 17.6298 17.5259C17.6911 17.5315 17.752 17.5343 17.8128 17.5343C18.273 17.5343 18.7146 17.3752 19.0727 17.0768C19.478 16.7394 19.7275 16.2641 19.7755 15.7389C19.8235 15.2136 19.664 14.701 19.3266 14.2959C19.3266 14.2959 19.3266 14.2959 19.3266 14.2959ZM19.2853 15.6942C19.2493 16.0886 19.062 16.4451 18.7578 16.6985C18.1298 17.2214 17.1936 17.1358 16.6702 16.5079C16.417 16.2037 16.2972 15.8191 16.3333 15.4249C16.3692 15.0306 16.5565 14.674 16.8607 14.4206C17.1372 14.1905 17.4735 14.0782 17.8081 14.0782C18.2332 14.0782 18.6556 14.2596 18.9482 14.6112C19.2015 14.9152 19.3212 15.2998 19.2853 15.6942Z" fill="#6CB3A5"/>
<path d="M14.2349 14.9828C15.0717 14.2861 15.1855 13.0386 14.4886 12.202C14.1512 11.7968 13.6759 11.5472 13.1508 11.4991C12.6251 11.451 12.1131 11.6106 11.7078 11.9482C11.3025 12.2858 11.0529 12.7609 11.0049 13.2861C10.9571 13.8114 11.1166 14.3239 11.454 14.7292C11.844 15.1976 12.4065 15.4393 12.9732 15.4393C13.4187 15.4391 13.8666 15.2896 14.2349 14.9828ZM11.8324 14.4141C11.5791 14.1099 11.4594 13.7253 11.4953 13.3309C11.5312 12.9367 11.7186 12.5801 12.0229 12.3268C12.3271 12.0736 12.7121 11.9533 13.1061 11.9897C13.5004 12.0256 13.857 12.213 14.1104 12.5173C14.6331 13.1452 14.5477 14.0818 13.9198 14.6048C13.2919 15.127 12.3555 15.042 11.8324 14.4141Z" fill="#6CB3A5"/>
<path d="M13.0596 17.5081C12.6543 17.8456 12.4048 18.3208 12.3568 18.8458C12.3089 19.3711 12.4684 19.8835 12.8059 20.2888C13.1433 20.694 13.6184 20.9435 14.1435 20.9915C14.2046 20.9971 14.2658 20.9999 14.3262 20.9999C14.7865 20.9999 15.228 20.8408 15.5861 20.5424C15.9914 20.205 16.2409 19.7299 16.2889 19.2047C16.3368 18.6796 16.1774 18.1672 15.84 17.762C15.1436 16.9254 13.8964 16.8113 13.0596 17.5081ZM15.7989 19.1598C15.7629 19.5541 15.5756 19.9107 15.2714 20.1639C14.9672 20.4172 14.5828 20.5367 14.1886 20.501C13.7942 20.465 13.4378 20.2777 13.1845 19.9735C12.9313 19.6693 12.8115 19.2847 12.8474 18.8905C12.8833 18.4963 13.0707 18.1397 13.3748 17.8864C13.6513 17.6562 13.9875 17.5441 14.322 17.5441C14.7471 17.5441 15.1695 17.7256 15.4621 18.0771C15.7151 18.381 15.835 18.7658 15.7989 19.1598Z" fill="#6CB3A5"/>
<path d="M7.89657 11.8569C7.89658 11.8569 7.89657 11.8569 7.89657 11.8569C7.3716 11.8088 6.85888 11.9686 6.45348 12.306C6.04821 12.6436 5.79858 13.1187 5.7507 13.644C5.70286 14.1692 5.86218 14.6817 6.19978 15.087C6.53739 15.4924 7.01249 15.7419 7.53764 15.7899C7.59892 15.7954 7.65986 15.7983 7.72046 15.7983C8.1808 15.7983 8.62248 15.6391 8.98057 15.3408C9.81714 14.6441 9.93094 13.3965 9.23424 12.56C8.8968 12.1544 8.42171 11.9047 7.89658 11.8569C7.89657 11.8569 7.89657 11.8569 7.89657 11.8569ZM8.66551 14.9624C8.3613 15.2156 7.97618 15.3351 7.58233 15.2995C7.18798 15.2634 6.83138 15.0761 6.57807 14.7719C6.32474 14.4677 6.20504 14.0831 6.24096 13.6889C6.27689 13.2945 6.46424 12.9379 6.76843 12.6846C7.03721 12.4607 7.36879 12.3411 7.71429 12.3411C7.75978 12.3411 7.80561 12.3432 7.85161 12.3474C8.2458 12.3833 8.60239 12.5706 8.8557 12.875C9.379 13.503 9.29358 14.4393 8.66551 14.9624Z" fill="#6CB3A5"/>
<path d="M8.30573 7.56478C9.16009 6.85329 9.27626 5.57942 8.56477 4.72507C7.85344 3.87088 6.57941 3.75454 5.72505 4.46602C4.87069 5.17752 4.7547 6.45156 5.46601 7.30574C6.17768 8.1601 7.45137 8.2761 8.30573 7.56478Z" fill="#6CB3A5"/>
<rect x="1" y="1" width="22" height="22" rx="1" stroke="#6CB3A5" stroke-width="2"/>
</svg>
