<svg width="24" height="24" viewBox="0 0 24 24" fill="none" xmlns="http://www.w3.org/2000/svg">
<path d="M23.4346 0.147321C23.7209 0.361607 23.838 0.647321 23.7859 1.00446L20.455 21.5759C20.4116 21.8348 20.2728 22.0357 20.0386 22.1786C19.9172 22.25 19.7827 22.2857 19.6353 22.2857C19.5399 22.2857 19.4358 22.2634 19.323 22.2188L13.4288 19.7411L10.2801 23.692C10.124 23.8973 9.91144 24 9.64254 24C9.52977 24 9.43435 23.9821 9.35629 23.9464C9.19148 23.8839 9.05919 23.779 8.95944 23.6317C8.85969 23.4844 8.80981 23.3214 8.80981 23.1429V18.4688L20.0516 4.28571L6.14248 16.6741L1.00298 14.5045C0.682033 14.3795 0.508548 14.1339 0.482525 13.7679C0.465176 13.4107 0.603964 13.1473 0.898889 12.9777L22.5498 0.120536C22.6799 0.0401786 22.8187 0 22.9662 0C23.1397 0 23.2958 0.0491071 23.4346 0.147321Z" fill="#9EBCEB"/>
</svg>
