<svg width="22" height="24" viewBox="0 0 22 24" fill="none" xmlns="http://www.w3.org/2000/svg">
<path d="M3.67737 20.0461C3.18962 20.0461 2.79489 19.5506 2.79489 18.9442C2.79489 18.7299 2.62202 18.557 2.40773 18.557C2.19363 18.557 2.02058 18.7299 2.02058 18.9442C2.02058 19.5505 1.62567 20.0461 1.1381 20.0461C0.923815 20.0461 0.750946 20.2189 0.750946 20.4332C0.750946 20.6473 0.923815 20.8204 1.1381 20.8204C1.62585 20.8204 2.02058 21.3133 2.02058 21.9223C2.02058 22.1364 2.19345 22.3094 2.40773 22.3094C2.62202 22.3094 2.79489 22.1366 2.79489 21.9223C2.79489 21.3133 3.18979 20.8204 3.67737 20.8204C3.89147 20.8204 4.06452 20.6475 4.06452 20.4332C4.06434 20.2189 3.89147 20.0461 3.67737 20.0461Z" fill="#B853B0"/>
<path d="M20.1699 11.6128C14.9288 11.6128 10.6657 6.57789 10.6657 0.387152C10.6657 0.17287 10.4928 0 10.2785 0C10.0644 0 9.89137 0.17287 9.89137 0.387152C9.89137 6.57789 5.62828 11.6128 0.387152 11.6128C0.172869 11.6128 0 11.7857 0 12C0 12.2141 0.172869 12.3872 0.387152 12.3872C5.62828 12.3872 9.89137 17.4221 9.89137 23.6128C9.89137 23.827 10.0642 24 10.2785 24C10.4928 24 10.6657 23.8271 10.6657 23.6128C10.6657 17.4221 14.9288 12.3872 20.1699 12.3872C20.3842 12.3872 20.557 12.2143 20.557 12C20.557 11.7857 20.3842 11.6128 20.1699 11.6128Z" fill="#B853B0"/>
<path d="M20.7324 3.09944C19.8395 3.09944 19.1144 2.21696 19.1144 1.133C19.1144 0.918719 18.9389 0.74585 18.7272 0.74585C18.5131 0.74585 18.3401 0.918719 18.3401 1.133C18.3401 2.21691 17.6123 3.09944 16.7194 3.09944C16.5078 3.09944 16.3322 3.27495 16.3322 3.48659C16.3322 3.7007 16.5078 3.87374 16.7194 3.87374C17.6123 3.87374 18.3401 4.75623 18.3401 5.8428C18.3401 6.0569 18.513 6.22995 18.7272 6.22995C18.9389 6.22995 19.1144 6.05708 19.1144 5.8428C19.1144 4.75641 19.8395 3.87374 20.7324 3.87374C20.9467 3.87374 21.1196 3.70087 21.1196 3.48659C21.1194 3.27495 20.9465 3.09944 20.7324 3.09944Z" fill="#B853B0"/>
</svg>
